<?xml version="1.0" encoding="UTF-8"?>
<svg width="194px" height="193px" viewBox="0 0 194 193" version="1.1" xmlns="http://www.w3.org/2000/svg" xmlns:xlink="http://www.w3.org/1999/xlink">
    <title>排球</title>
    <defs>
        <linearGradient x1="0.284900285%" y1="50%" x2="100%" y2="50%" id="linearGradient-1">
            <stop stop-color="#FFB754" offset="0%"></stop>
            <stop stop-color="#F87A33" offset="100%"></stop>
        </linearGradient>
        <linearGradient x1="0.284900285%" y1="50%" x2="100%" y2="50%" id="linearGradient-2">
            <stop stop-color="#FFFFFF" offset="0%"></stop>
            <stop stop-color="#FFFFFF" offset="100%"></stop>
        </linearGradient>
    </defs>
    <g id="页面-1" stroke="none" stroke-width="1" fill="none" fill-rule="evenodd" opacity="0.21812221">
        <g id="我的" transform="translate(-206.000000, -11.000000)" fill="url(#linearGradient-2)" fill-rule="nonzero">
            <g id="排球" transform="translate(206.000000, 11.000000)">
                <path d="M173.549858,154.4 C182.393162,124.622857 177.418803,91.5371429 159.179487,64.5171429 C168.022792,61.76 175.760684,59.5542857 185.156695,56.7971429 C191.789174,69.48 194,82.7142857 194,96.5 C194,118.557143 186.262108,138.96 173.549858,154.4 Z M7.18518519,131.24 C19.8974359,164.877143 50.8490028,189.14 88.4330484,193 C91.1965812,184.177143 92.3019943,174.802857 95.0655271,165.98 L88.4330484,165.98 C57.4814815,165.98 27.6353276,153.297143 7.18518519,131.24 Z M106.119658,89.8828571 C108.883191,113.042857 107.225071,136.202857 105.014245,159.362857 L105.014245,162.12 C103.908832,172.597143 101.145299,182.522857 97.2763533,193 C120.490028,193 140.940171,185.28 156.415954,172.597143 C174.655271,138.96 171.891738,99.2571429 149.783476,68.3771429 C134.860399,74.4428571 120.490028,81.06 106.119658,89.8828571 Z M46.980057,64.5171429 C59.6923077,74.9942857 74.0626781,83.8171429 88.4330484,91.5371429 C107.777778,77.2 128.22792,67.2742857 149.230769,57.9 C150.336182,57.9 150.336182,56.7971429 151.994302,56.7971429 C160.837607,52.9371429 171.339031,50.18 180.182336,47.9742857 C169.680912,28.6742857 151.994302,14.3371429 130.991453,6.61714286 C96.1709402,8.82285714 62.4558405,30.88 46.980057,64.5171429 Z M98.3817664,106.977143 C76.2735043,98.1542857 56.9287749,84.92 39.2421652,71.1342857 C38.1367521,71.1342857 38.1367521,70.0314286 36.4786325,70.0314286 C28.7407407,62.3114286 21.002849,55.6942857 14.3703704,47.9742857 C5.52706553,62.3114286 0,78.8542857 0,97.0514286 C0,100.911429 0,104.771429 1.10541311,108.631429 C20.4501425,140.614286 56.3760684,158.811429 95.0655271,156.054286 C98.3817664,138.96 100.039886,123.52 98.3817664,106.977143 Z M109.988604,1.10285714 C106.119658,1.10285714 101.145299,0 97.2763533,0 C65.2193732,0 36.4786325,15.44 19.8974359,39.7028571 C26.5299145,46.32 32.6096866,52.3857143 39.2421652,57.9 C53.6125356,29.7771429 79.037037,8.82285714 109.988604,1.10285714 Z" id="形状"></path>
            </g>
        </g>
    </g>
</svg>