<svg xmlns="http://www.w3.org/2000/svg" xmlns:xlink="http://www.w3.org/1999/xlink" width="20" height="20" viewBox="0 0 20 20" fill="none">
<path d="M17.5 17.315L17.5 2.685C17.5 2.23627 17.1302 1.875 16.67 1.875L3.33 1.875C2.86977 1.875 2.5 2.23627 2.5 2.685L2.5 17.315C2.5 17.7637 2.86977 18.125 3.33 18.125L16.67 18.125C17.1302 18.125 17.5 17.7637 17.5 17.315ZM6.6666 7.5675L13.3366 7.5675L13.3366 5.9375L6.6666 5.9375L6.6666 7.5675ZM6.6666 10.8175L13.3366 10.8175L13.3366 9.1875L6.6666 9.1875L6.6666 10.8175ZM6.6666 14.0675L10.8366 14.0675L10.8366 12.4375L6.6666 12.4375L6.6666 14.0675Z" fill-rule="evenodd"  fill="#303133" >
</path>
</svg>
