<svg xmlns="http://www.w3.org/2000/svg" xmlns:xlink="http://www.w3.org/1999/xlink" width="20" height="20" viewBox="0 0 20 20" fill="none">
<path d="M16.85 2.12C16.85 1.65057 16.4597 1.25 15.98 1.25L6.45 1.25L1.25 6.5L1.25 17.87C1.25 18.3573 1.63451 18.75 2.11 18.75L15.99 18.75C16.4654 18.75 16.85 18.3593 16.85 17.88L16.85 11.59L15.12 13.34L15.12 17L2.98 17L2.98 7.37L7.32 7.37L7.32 3L15.12 3L15.12 8.41L16.85 6.66L16.85 2.12ZM4.093 5.8633L5.783 5.8633L5.783 4.0333L4.093 5.8633ZM10.7815 15.2466L10.7815 14.0166L17.5215 7.2066L18.7515 8.4466L12.0115 15.2466L10.7815 15.2466Z" stroke="rgba(255, 255, 255, 1)" stroke-width="0.3" stroke-linejoin="round"   fill-rule="evenodd"  fill="#303133" >
</path>
</svg>
