<svg xmlns="http://www.w3.org/2000/svg" xmlns:xlink="http://www.w3.org/1999/xlink" width="28" height="28" viewBox="0 0 28 28" fill="none">
<rect  x="0" y="0" width="28" height="28" rx="14"    fill="#373838" >
</rect>
<path d="M18.155 8.97491C19.4361 10.2143 20.126 11.668 20.225 13.3549C20.324 15.0418 19.8106 16.579 18.675 17.9649L20.625 19.9249C20.7187 20.0292 20.765 20.1449 20.765 20.2749C20.765 20.4049 20.714 20.5156 20.615 20.6149C20.516 20.7142 20.4053 20.7649 20.275 20.7649C20.1447 20.7649 20.0289 20.7182 19.925 20.6249L17.965 18.6749C16.5799 19.81 15.0423 20.3239 13.355 20.2249C11.6677 20.1259 10.2141 19.4359 8.97499 18.1549C7.78756 16.8116 7.20366 15.3022 7.23499 13.6149C7.26631 11.9276 7.90556 10.4363 9.14499 9.14491C10.4364 7.90553 11.9277 7.26623 13.615 7.23491C15.3023 7.20358 16.8116 7.78752 18.155 8.97491ZM19.2365 13.7363C19.1945 15.2983 18.6573 16.5953 17.6265 17.6263C16.5957 18.6574 15.2988 19.1946 13.7365 19.2363C12.1745 19.1943 10.8776 18.6571 9.84649 17.6263C8.81536 16.5956 8.27814 15.2986 8.23649 13.7363C8.27848 12.1743 8.81569 10.8774 9.84649 9.84631C10.8773 8.81522 12.1741 8.27797 13.7365 8.23631C15.2985 8.2783 16.5954 8.81555 17.6265 9.84631C18.6577 10.8771 19.1948 12.174 19.2365 13.7363Z" stroke="rgba(255, 255, 255, 1)" stroke-width="0.5"    fill-rule="evenodd"  fill="#FFFFFF" >
</path>
</svg>
