<svg xmlns="http://www.w3.org/2000/svg" xmlns:xlink="http://www.w3.org/1999/xlink" width="20" height="20" viewBox="0 0 20 20" fill="none">
<g opacity="0">
<rect x="1.25" y="1.25" width="17.5" height="17.5"   fill="#303133" >
</rect>
</g>
<path d="M14.4079 2.41C14.1593 2.1396 14.1636 1.71459 14.4179 1.45C14.6722 1.18541 15.0784 1.18094 15.3379 1.44L18.5579 4.79C18.6768 4.91387 18.7479 5.07713 18.7479 5.24L18.7479 5.32C18.7479 5.48815 18.6724 5.65104 18.5579 5.77L15.3379 9.12C15.1723 9.30014 14.9297 9.37273 14.6979 9.31C14.4661 9.24727 14.2783 9.06131 14.2179 8.82C14.1575 8.57869 14.2351 8.32259 14.4079 8.15L16.4979 5.97L13.9879 5.97C12.289 5.97 10.7196 6.92724 9.8879 8.47C9.74472 8.7361 9.59594 9.24281 9.4579 9.84L9.3579 10.3C9.34157 10.3794 9.32339 10.4604 9.3079 10.54L9.2179 11.02C9.06224 11.9116 8.9579 12.7966 8.9579 13.26C8.9579 13.6401 8.66286 13.94 8.2979 13.94C7.93294 13.94 7.6379 13.6401 7.6379 13.26C7.6379 12.0343 8.17327 8.83604 8.7379 7.79C9.76668 5.88146 11.6775 4.67671 13.7779 4.6L13.9879 4.59L16.4979 4.59L14.4079 2.41ZM3.78 2.8453L9.25 2.8453C9.5991 2.8453 9.88804 3.12247 9.91 3.4853C9.93196 3.84813 9.67638 4.17005 9.33 4.2153L9.25 4.2253L3.92 4.2253C3.22166 4.2253 2.64257 4.77096 2.58 5.4953L2.57 5.6053L2.57 15.9853C2.57 16.7117 3.11467 17.3072 3.81 17.3653L3.92 17.3753L15.32 17.3753C16.0183 17.3753 16.6074 16.8196 16.67 16.0953L16.67 11.7753C16.67 11.4117 16.9416 11.1182 17.29 11.0953C17.6384 11.0724 17.9465 11.3346 17.99 11.6953L17.99 15.9853C17.99 17.4641 16.8683 18.6688 15.46 18.7453L3.92 18.7453C2.49336 18.7453 1.32416 17.5942 1.25 16.1353L1.25 5.6053C1.25 4.12724 2.37172 2.921 3.78 2.8453Z" stroke="rgba(48, 49, 51, 1)" stroke-width="0.2"    fill-rule="evenodd"  fill="#303133" >
</path>
</svg>
